<svg xmlns="http://www.w3.org/2000/svg" viewBox="0 0 800 450" preserveAspectRatio="xMidYMid slice" role="img" aria-label="Signs of cockroaches">
  <defs>
    <linearGradient id="g1" x1="0" y1="0" x2="1" y2="1">
      <stop offset="0" stop-color="#1b56a8"/>
      <stop offset="1" stop-color="#0a2c54"/>
    </linearGradient>
  </defs>
  <rect width="800" height="450" fill="url(#g1)"/>
  <circle cx="700" cy="70" r="150" fill="#f6c324" opacity="0.13"/>
  <circle cx="90" cy="410" r="110" fill="#22c55e" opacity="0.16"/>
  <rect x="320" y="145" width="160" height="160" rx="38" fill="#ffffff" opacity="0.12"/>
  <g transform="translate(340,165) scale(5)" fill="#ffffff">
    <path d="M20 8h-2.81a5.99 5.99 0 0 0-1.82-1.96l1.7-1.7-1.42-1.42-2.16 2.17A6.07 6.07 0 0 0 12 5c-.46 0-.91.05-1.34.15L8.5 2.99 7.08 4.41l1.7 1.7A5.99 5.99 0 0 0 6.96 8H4v2h2.09c-.05.33-.09.66-.09 1v1H4v2h2v1c0 .34.04.67.09 1H4v2h2.81a6 6 0 0 0 10.38 0H20v-2h-2.09c.05-.33.09-.66.09-1v-1h2v-2h-2v-1c0-.34-.04-.67-.09-1H20V8z"/>
  </g>
  <text x="56" y="64" fill="#f6c324" font-family="Poppins, Arial, sans-serif" font-size="22" font-weight="700" letter-spacing="3">PEST TIPS</text>
  <circle cx="740" cy="408" r="20" fill="#ffffff"/>
  <text x="740" y="416" fill="#22c55e" font-family="Georgia, serif" font-size="26" font-weight="bold" text-anchor="middle">S</text>
</svg>
